<?xml version="1.0" standalone="no"?><svg xmlns:xlink="http://www.w3.org/1999/xlink" xmlns="http://www.w3.org/2000/svg" viewBox="0 0 500 166.6640776699029" preserveAspectRatio="xMaxYMax slice"><g transform="scale(0.4854368932038835)"><rect x="0" y="0" width="1030" height="343.3333333333333" fill="#ffffff"/><path d="M 228.89 0 A 114.44 114.44 0 0 1  343.33 114.44 L 228.89 0 A 114.44 114.44 0 0 0 343.33 114.44" fill="#feece0"/><rect x="572.2222222222222" y="0" width="114.44444444444444" height="114.44444444444444" fill="#ffffff"/><path d="M 629.44 0 A 57.22 57.22 0 0 1  686.6600000000001 57.22 L 629.44 0 A 57.22 57.22 0 0 0 686.6600000000001 57.22" fill="#fdc7a1"/><path d="M 629.44 114.44 A 57.22 57.22 0 0 1  686.6600000000001 57.22 L 629.44 114.44 A 57.22 57.22 0 0 0 686.6600000000001 57.22" fill="#cfd0d3"/><rect x="801.1111111111111" y="0" width="114.44444444444444" height="114.44444444444444" fill="#ffffff"/><path d="M 801.11 114.44 A 57.22 57.22 0 0 1  858.33 57.22 L 801.11 114.44 A 57.22 57.22 0 0 0 858.33 57.22" fill="#fa8a3c"/><path d="M 915.56 0 A 114.44 114.44 0 0 1  1030 114.44 L 915.56 0 A 114.44 114.44 0 0 0 1030 114.44" fill="#fee7d8"/><rect x="0" y="114.44444444444444" width="114.44444444444444" height="114.44444444444444" fill="#ffffff"/><path d="M 57.22 171.67 A 57.22 57.22 0 0 1  114.44 228.89 L 57.22 171.67 A 57.22 57.22 0 0 0 114.44 228.89" fill="#797d83"/><rect x="114.44444444444444" y="114.44444444444444" width="114.44444444444444" height="114.44444444444444" fill="#ffffff"/><rect x="343.3333333333333" y="114.44444444444444" width="114.44444444444444" height="114.44444444444444" fill="#ffffff"/><path d="M 343.33 171.66 A 57.22 57.22 0 0 1  400.54999999999995 114.44 L 343.33 171.66 A 57.22 57.22 0 0 0 400.54999999999995 114.44" fill="#fee5d4"/><path d="M 400.56 171.66 A 57.22 57.22 0 0 1  457.78 114.44 L 400.56 171.66 A 57.22 57.22 0 0 0 457.78 114.44" fill="#fa8c40"/><rect x="457.77777777777777" y="114.44444444444444" width="114.44444444444444" height="114.44444444444444" fill="#ffffff"/><path d="M 457.78 171.66 A 57.22 57.22 0 0 1  515 114.44 L 457.78 171.66 A 57.22 57.22 0 0 0 515 114.44" fill="#888c91"/><path d="M 457.78 171.67 A 57.22 57.22 0 0 1  515 228.89 L 457.78 171.67 A 57.22 57.22 0 0 0 515 228.89" fill="#6a6e75"/><path d="M 515 171.67 A 57.22 57.22 0 0 1  572.22 228.89 L 515 171.67 A 57.22 57.22 0 0 0 572.22 228.89" fill="#a0a3a8"/><path d="M 572.22 228.88 A 114.44 114.44 0 0 1  686.6600000000001 114.44 L 572.22 228.88 A 114.44 114.44 0 0 0 686.6600000000001 114.44" fill="#767b81"/><path d="M 915.56 228.88 A 114.44 114.44 0 0 1  1030 114.44 L 915.56 228.88 A 114.44 114.44 0 0 0 1030 114.44" fill="#fcc097"/><path d="M 343.33 228.89 A 114.44 114.44 0 0 1  457.77 343.33 L 343.33 228.89 A 114.44 114.44 0 0 0 457.77 343.33" fill="#2a313b"/><path d="M 686.67 228.89 A 114.44 114.44 0 0 1  801.1099999999999 343.33 L 686.67 228.89 A 114.44 114.44 0 0 0 801.1099999999999 343.33" fill="#353c45"/><rect x="915.5555555555555" y="228.88888888888889" width="114.44444444444444" height="114.44444444444444" fill="#ffffff"/><path d="M 915.56 343.33000000000004 A 57.22 57.22 0 0 1  972.78 286.11 L 915.56 343.33000000000004 A 57.22 57.22 0 0 0 972.78 286.11" fill="#2f363f"/><path d="M 972.78 286.11 A 57.22 57.22 0 0 1  1030 343.33000000000004 L 972.78 286.11 A 57.22 57.22 0 0 0 1030 343.33000000000004" fill="#b4b6ba"/></g></svg>